<svg xmlns="http://www.w3.org/2000/svg" xmlns:xlink="http://www.w3.org/1999/xlink" viewBox="0 0 32 32" fill="#5B5B5B">
  <path d="M9.6113281 5C7.0767063 5 5 7.0767063 5 9.6113281L5 22.388672C5 24.923294 7.0767063 27 9.6113281 27L22.388672 27C24.923294 27 27 24.923294 27 22.388672L27 9.6113281C27 7.0767063 24.923294 5 22.388672 5L9.6113281 5 z M 9.6113281 7L22.388672 7C23.84205 7 25 8.15795 25 9.6113281L25 22.388672C25 23.84205 23.84205 25 22.388672 25L9.6113281 25C8.15795 25 7 23.84205 7 22.388672L7 9.6113281C7 8.15795 8.15795 7 9.6113281 7 z M 17 9L17 19C17 20.116666 16.116666 21 15 21C13.883334 21 13 20.116666 13 19C13 17.883334 13.883334 17 15 17L15 15C12.802666 15 11 16.802666 11 19C11 21.197334 12.802666 23 15 23C17.197334 23 19 21.197334 19 19L19 12.888672C19.827834 13.529766 20.809277 13.98411 21.927734 14L21.957031 12C20.310764 11.976611 19 10.654231 19 9L17 9 z" fill="#5B5B5B" />
</svg>