<svg xmlns="http://www.w3.org/2000/svg" xmlns:xlink="http://www.w3.org/1999/xlink" viewBox="0 0 48 48"><linearGradient id="vi8oh99owT4JiyrwnSQLMa" x1="18.323" x2="28.916" y1="5.806" y2="39.754" gradientUnits="userSpaceOnUse"><stop offset="0" stop-color="#199ae0"/><stop offset="1" stop-color="#0782d8"/></linearGradient><path fill="url(#vi8oh99owT4JiyrwnSQLMa)" d="M42,7H6C4.895,7,4,7.895,4,9v30c0,1.105,0.895,2,2,2h36c1.105,0,2-0.895,2-2V9C44,7.895,43.105,7,42,7z"/><linearGradient id="vi8oh99owT4JiyrwnSQLMb" x1="21.941" x2="25.691" y1="11.77" y2="36.772" gradientUnits="userSpaceOnUse"><stop offset="0" stop-color="#0d61a9"/><stop offset="1" stop-color="#16528c"/></linearGradient><rect width="34" height="25" x="7" y="13" fill="url(#vi8oh99owT4JiyrwnSQLMb)"/><polygon fill="#4fe5ff" points="39,7 35,7 37,10 35,13 39,13 41,10"/><polygon fill="#4fe5ff" points="30,7 26,7 28,10 26,13 30,13 32,10"/><polygon fill="#4fe5ff" points="21,7 17,7 19,10 17,13 21,13 23,10"/><polygon fill="#4fe5ff" points="12,7 8,7 10,10 8,13 12,13 14,10"/></svg>